<svg width="481" height="161" xmlns="http://www.w3.org/2000/svg" xmlns:xlink="http://www.w3.org/1999/xlink"><defs><linearGradient x1="50%" y1="0%" x2="50%" y2="100%" id="b"><stop stop-color="#166088" offset="0%"/><stop stop-color="#0F415D" offset="100%"/></linearGradient><linearGradient x1="27.725%" y1="-50.898%" x2="27.725%" y2="93.963%" id="c"><stop stop-color="#166088" offset="0%"/><stop stop-color="#0F415D" offset="100%"/></linearGradient><path d="M125 20a4 4 0 014 4v128a4 4 0 01-4 4H24a4 4 0 01-4-4V24a4 4 0 014-4h101zM74.272 61.7c-4.872 0-8.816 1.276-11.89 3.77-3.074 2.494-4.582 5.742-4.582 9.628 0 3.132 1.044 5.916 3.074 8.352s4.988 4.234 8.874 5.452l.1.028 10.53 2.96.089.025.011.003c2.146.58 3.712 1.392 4.756 2.494 1.044 1.102 1.566 2.436 1.566 4.002 0 1.914-1.044 3.538-3.132 4.814-2.088 1.334-4.872 1.972-8.41 1.972-2.552 0-5.046-.58-7.54-1.682-2.494-1.102-4.814-2.958-6.902-5.684l-2.617 1.899-.682.494-2.617 1.899c2.262 3.19 5.104 5.742 8.526 7.54 3.422 1.856 7.366 2.784 11.948 2.784 5.626 0 10.15-1.334 13.572-3.944 3.422-2.61 5.104-5.916 5.104-9.918 0-3.48-.986-6.322-3.016-8.584-2.03-2.262-4.64-3.886-7.946-4.872l-11.44-3.12-.044-.012c-2.146-.638-3.77-1.508-4.872-2.726-1.16-1.16-1.74-2.552-1.74-4.118 0-1.74.87-3.19 2.552-4.408 1.682-1.218 3.944-1.798 6.728-1.798 1.914 0 4.002.348 6.148.986s4.176 1.74 5.974 3.19l2.445-1.72.344-.243.686-.482.344-.243 2.445-1.72a28.806 28.806 0 00-8.874-5.278c-3.306-1.16-6.438-1.74-9.512-1.74z" id="a"/></defs><g fill="none" fill-rule="evenodd"><rect fill="#DBE9EE" width="109" height="136" rx="4"/><use fill="#30728F" xlink:href="#a"/><use fill="url(#b)" xlink:href="#a"/><text fill="url(#c)" fill-rule="nonzero" font-family="FashionFetishBold, Fashion Fetish" font-size="58" font-weight="bold"><tspan x="137" y="111">econdary</tspan> </text></g></svg>